# xmcd
# 
# Track frame offsets:
#     150
#     13921
#     29725
#     46352
#     60530
#     78414
#     91954
#     106170
#     125812
#     139682
#     152398
# 
# Disc length: 2220
# 
# Revision: 0
# Processed by: cddbd v1.5.2PL0 Copyright (c) Steve Scherf et al.
# Submitted via: fre:ac v1.0.17
# 
DISCID=8c08aa0b
DTITLE=Hewitt Sisters - Yellow
DYEAR=2004
DGENRE=Country
TTITLE0=Yellow
TTITLE1=My Angel
TTITLE2=Don't Worry
TTITLE3=Could You Lie
TTITLE4=Today I Started Loving You Again
TTITLE5=Red Clay Halo
TTITLE6=Why You Wanna Be Like That
TTITLE7=Please Find Me
TTITLE8=The Healing Kind
TTITLE9=I've Got That Old Feeling
TTITLE10=Yellow - Remixed
EXTD=
EXTT0=
EXTT1=
EXTT2=
EXTT3=
EXTT4=
EXTT5=
EXTT6=
EXTT7=
EXTT8=
EXTT9=
EXTT10=
PLAYORDER=
